<svg width="20" height="28" viewBox="0 0 20 28" fill="none" xmlns="http://www.w3.org/2000/svg">
<g clip-path="url(#clip0_2114_344)">
<path d="M5.49992 27H14.4998M9.99984 1C5.02937 1 1 4.8802 1 9.66667C1 11.4209 1.54126 13.0535 2.47172 14.4179C3.90256 16.516 4.61735 17.5643 4.71021 17.721C5.53634 19.1148 5.38423 18.6232 5.4882 20.2249C5.49989 20.405 5.49992 20.6775 5.49992 21.2222C5.49992 22.02 6.17148 22.6667 6.9999 22.6667L12.9998 22.6667C13.8282 22.6667 14.4998 22.02 14.4998 21.2222C14.4998 20.6775 14.4998 20.405 14.5115 20.2249C14.6154 18.6232 14.4624 19.1148 15.2886 17.721C15.3814 17.5643 16.0974 16.516 17.5283 14.4179C18.4587 13.0535 19 11.4209 19 9.66667C19 4.8802 14.9703 1 9.99984 1Z" stroke="#2B2B2B" stroke-width="2" stroke-linecap="round" stroke-linejoin="round"/>
</g>
<defs>
<clipPath id="clip0_2114_344">
<rect width="20" height="28" fill="white"/>
</clipPath>
</defs>
</svg>
