<svg width="20" height="28" viewBox="0 0 20 28" fill="none" xmlns="http://www.w3.org/2000/svg">
<g clip-path="url(#clip0_2114_349)">
<path d="M14.5 26C15.0522 26.0001 15.5 26.4478 15.5 27C15.5 27.5522 15.0522 27.9999 14.5 28H5.5C4.94772 28 4.5 27.5523 4.5 27C4.5 26.4477 4.94772 26 5.5 26H14.5ZM10 0C15.4868 8.20737e-05 20 4.29303 20 9.66699C19.9999 11.6307 19.3932 13.4583 18.3545 14.9814C17.6388 16.0309 17.1031 16.8165 16.7344 17.3594C16.55 17.6309 16.4083 17.84 16.3076 17.9902C16.2572 18.0655 16.2179 18.1244 16.1895 18.168C16.1616 18.2106 16.1499 18.2281 16.1484 18.2305C16.0421 18.41 15.9519 18.5592 15.876 18.6836C15.7983 18.8109 15.7415 18.9045 15.6943 18.9844C15.5983 19.1468 15.5867 19.1828 15.584 19.1914C15.5814 19.1999 15.5707 19.2361 15.5586 19.4199C15.5526 19.5114 15.5467 19.6191 15.5391 19.7666C15.5316 19.9108 15.5232 20.0836 15.5098 20.29C15.5008 20.4287 15.5 20.6579 15.5 21.2227C15.4998 22.6076 14.3446 23.6669 13 23.667H7C5.65533 23.667 4.50024 22.6077 4.5 21.2227C4.5 20.6581 4.49922 20.4287 4.49023 20.29C4.47683 20.0835 4.46745 19.9108 4.45996 19.7666C4.4523 19.619 4.44744 19.5113 4.44141 19.4199C4.42933 19.237 4.41771 19.201 4.41504 19.1924C4.4123 19.1836 4.40096 19.147 4.30469 18.9844C4.2574 18.9045 4.20075 18.8109 4.12305 18.6836C4.0471 18.5591 3.95601 18.41 3.84961 18.2305C3.84751 18.2271 3.8367 18.2085 3.80957 18.167C3.78114 18.1235 3.74163 18.0653 3.69141 17.9902C3.59094 17.8401 3.44979 17.6307 3.26562 17.3594C2.89726 16.8166 2.36119 16.0309 1.64551 14.9814C0.606766 13.4583 6.71761e-05 11.6307 0 9.66699C0 4.29302 4.51313 0 10 0Z" fill="black"/>
</g>
<defs>
<clipPath id="clip0_2114_349">
<rect width="20" height="28" fill="white"/>
</clipPath>
</defs>
</svg>
