<svg width="405" height="106" viewBox="0 0 405 106" fill="none" xmlns="http://www.w3.org/2000/svg">
<g clip-path="url(#clip0_2098_273)">
<path d="M52.5039 -3.93403e-06L52.5039 106L38.5039 106L38.5039 -7.31287e-07L52.5039 -3.93403e-06ZM72.5039 -3.0598e-06L72.5039 106L60.5039 106L60.5039 -3.58433e-06L72.5039 -3.0598e-06ZM90.5039 76L90.5039 106L80.5039 106L80.5039 76L90.5039 76ZM108.504 76L108.504 106L98.5039 106L98.5039 76L108.504 76ZM128.504 99.0381C128.504 94.6985 131.304 92 135.534 92C139.724 92.0002 142.504 94.6798 142.504 99.0381C142.504 103.245 139.744 106 135.534 106C131.324 106 128.504 103.246 128.504 99.0381ZM21.8398 91.7646C22.0078 91.7647 22.1338 91.8907 22.1338 92.0586L22.1338 96.5098C22.1338 96.6777 22.0077 96.8046 21.8398 96.8047L18.3115 96.6357C20.9575 98.2317 22.3438 101.088 22.3438 104.154C22.3437 104.616 22.3017 105.036 22.2178 105.414C22.1758 105.582 22.0497 105.666 21.8818 105.666L18.6895 105.666C18.5216 105.666 18.3955 105.54 18.3955 105.33C18.4375 105.036 18.4795 104.658 18.4795 104.28C18.4795 100.206 16.0857 96.9308 11.1719 96.7627L0.797863 96.8047C0.629865 96.8047 0.503921 96.6778 0.503917 96.5098L0.503917 92.0586C0.503917 91.8906 0.629863 91.7646 0.797863 91.7646L11.4658 91.8906L21.8398 91.7646ZM129.874 99.0381C129.874 102.661 131.999 104.83 135.534 104.83C139.049 104.83 141.134 102.66 141.134 99.0381C141.134 95.3968 139.069 93.1701 135.534 93.1699C131.96 93.1699 129.874 95.3778 129.874 99.0381ZM132.396 95.0947C132.397 94.9627 132.496 94.8682 132.635 94.8682L135.573 94.8682C137.718 94.8682 139.068 95.7176 139.068 97.3213C139.068 98.5852 138.254 99.3583 136.943 99.6602L139.108 102.83C139.208 102.981 139.128 103.113 138.949 103.113L137.698 103.113C137.579 103.113 137.479 103.056 137.42 102.962L135.335 99.8115L133.865 99.8115L133.905 102.887C133.905 103.038 133.826 103.113 133.667 103.113L132.635 103.113C132.496 103.113 132.396 103.019 132.396 102.887L132.396 95.0947ZM135.673 98.7549C136.824 98.7548 137.559 98.3398 137.56 97.3779C137.56 96.4159 136.884 95.9435 135.653 95.9434L133.905 95.9434L133.865 98.7549L135.673 98.7549ZM11.2559 69.0605C18.0596 69.0606 22.6375 73.0088 22.6377 79.6025C22.6377 86.3224 18.1438 90.1444 10.752 90.2285C10.542 90.2285 10.458 90.1026 10.458 89.9346L10.458 74.1006C5.7122 74.3106 3.40156 76.2008 3.40138 79.8125C3.40138 82.5004 4.78776 84.2225 7.68556 84.8525C7.85333 84.8945 7.93737 84.9788 7.93751 85.1465L7.93751 89.4307C7.93751 89.5986 7.8115 89.7245 7.64357 89.6826C3.35969 89.1365 1.15167e-05 85.6084 1.17719e-05 79.7705C0.000196494 72.7988 4.662 69.0605 11.2559 69.0605ZM13.7334 84.7685C16.6734 84.5585 19.2773 82.9625 19.2773 79.6445C19.2772 76.5368 17.3452 74.7726 13.7334 74.2685L13.7334 84.7685ZM126.504 30L126.504 76L118.504 76L118.504 30L126.504 30ZM142.504 30L142.504 76L134.504 76L134.504 30L142.504 30ZM29.6094 48.3496C29.7772 48.3497 29.9031 48.4758 29.9033 48.6436L29.9033 53.0537C29.9033 53.2217 29.7773 53.3476 29.6094 53.3477L19.1094 53.2637C21.2513 54.6917 22.6377 56.9604 22.6377 60.0684C22.6376 64.7721 19.7812 67.6699 13.5234 67.5859L9.02931 67.5859L0.797864 67.6699C0.629864 67.6699 0.503919 67.544 0.503919 67.376L0.503919 62.8398C0.503996 62.6719 0.629915 62.5459 0.797864 62.5459L8.98732 62.6299L14.0274 62.6299C17.4293 62.5878 18.8994 60.9076 18.8994 58.7656C18.8992 56.2878 16.9252 53.9357 13.2715 53.2217L0.797864 53.3477C0.629864 53.3477 0.503919 53.2217 0.503919 53.0537L0.503919 48.6436C0.504141 48.4758 0.630012 48.3496 0.797865 48.3496L15.3301 48.4756L29.6094 48.3496ZM21.8398 33.8447C22.0077 33.8448 22.1337 33.9708 22.1338 34.1387L22.1338 36.6592L27.2578 36.6172C27.4257 36.6173 27.5518 36.7432 27.5518 36.9111L27.5518 41.4053C27.5516 41.573 27.4256 41.6991 27.2578 41.6992L22.1338 41.6572L22.1338 46.6553C22.1336 46.823 22.0076 46.9491 21.8398 46.9492L18.8154 46.9492C18.6477 46.949 18.5217 46.823 18.5215 46.6553L18.5215 41.6572L6.76173 41.6572C4.49385 41.6572 3.77935 42.5809 3.77931 44.1768C3.77931 45.1428 3.94822 45.9413 4.11622 46.5713C4.15796 46.7808 4.07367 46.907 3.86427 46.9072L1.04982 46.9072C0.88195 46.9072 0.755979 46.823 0.71388 46.6553C0.419884 45.5633 0.125998 44.3449 0.12599 43.127C0.12599 39.725 1.80579 36.6172 6.63576 36.6172L18.5215 36.6592L18.5215 34.1387C18.5216 33.9709 18.6477 33.8449 18.8154 33.8447L21.8398 33.8447ZM21.8399 27.2109C22.0077 27.211 22.1336 27.3371 22.1338 27.5049L22.1338 32.041C22.1338 32.209 22.0078 32.3349 21.8398 32.335L11.5078 32.251L0.797865 32.335C0.629865 32.335 0.50392 32.209 0.50392 32.041L0.50392 27.5049C0.50408 27.337 0.629972 27.2109 0.797866 27.2109L11.5078 27.2529L21.8399 27.2109ZM28.8955 27.2109C29.0633 27.211 29.1893 27.3371 29.1895 27.5049L29.1895 32.041C29.1895 32.209 29.0634 32.3349 28.8955 32.335L24.6533 32.335C24.4856 32.3347 24.3594 32.2089 24.3594 32.041L24.3594 27.5049C24.3595 27.3372 24.4857 27.2112 24.6533 27.2109L28.8955 27.2109ZM90.5039 -2.27299e-06L90.5039 30L80.5039 30L80.5039 -2.71011e-06L90.5039 -2.27299e-06ZM108.504 -1.48619e-06L108.504 30L98.5039 30L98.5039 -1.9233e-06L108.504 -1.48619e-06ZM29.6094 0.00781138C29.7772 0.00787341 29.9032 0.13392 29.9033 0.301757L29.9033 10.1719C29.9033 18.6137 25.0318 25.4178 15.1201 25.418C4.91412 25.418 0.503921 18.3199 0.503921 10.2559L0.503921 0.301755C0.504042 0.133876 0.629947 0.00781011 0.797867 0.00781012L15.4141 0.133787L29.6094 0.00781138ZM4.36818 5.21582L4.36818 10.5918C4.36818 15.5478 7.47612 20.084 15.1201 20.084C22.5538 20.0838 26.04 15.8417 26.04 10.4238L26.04 5.21582L15.54 5.13183L4.36818 5.21582Z" fill="white"/>
<path d="M167.945 71.9492H161.582L160.387 75.5H156.613L162.777 58.2266H166.855L172.973 75.5H169.059L167.945 71.9492ZM166.938 68.9727L164.781 62.1758L162.555 68.9727H166.938ZM180.848 65.8086C179.504 65.8086 178.602 66.2461 178.141 67.1211C177.883 67.6133 177.754 68.3711 177.754 69.3945V75.5H174.391V62.7266H177.579V64.9531C178.094 64.1016 178.543 63.5195 178.926 63.207C179.551 62.6836 180.364 62.4219 181.364 62.4219C181.426 62.4219 181.477 62.4258 181.516 62.4336C181.563 62.4336 181.661 62.4375 181.809 62.4453V65.8672C181.598 65.8438 181.411 65.8281 181.247 65.8203C181.083 65.8125 180.95 65.8086 180.848 65.8086ZM189.72 65.8086C188.376 65.8086 187.474 66.2461 187.013 67.1211C186.755 67.6133 186.626 68.3711 186.626 69.3945V75.5H183.263V62.7266H186.45V64.9531C186.966 64.1016 187.415 63.5195 187.798 63.207C188.423 62.6836 189.235 62.4219 190.235 62.4219C190.298 62.4219 190.349 62.4258 190.388 62.4336C190.435 62.4336 190.532 62.4375 190.681 62.4453V65.8672C190.47 65.8438 190.282 65.8281 190.118 65.8203C189.954 65.8125 189.821 65.8086 189.72 65.8086ZM192.65 64.1094C193.533 62.9844 195.048 62.4219 197.197 62.4219C198.595 62.4219 199.837 62.6992 200.923 63.2539C202.009 63.8086 202.552 64.8555 202.552 66.3945V72.2539C202.552 72.6602 202.56 73.1523 202.576 73.7305C202.599 74.168 202.665 74.4648 202.775 74.6211C202.884 74.7773 203.048 74.9062 203.267 75.0078V75.5H199.634C199.533 75.2422 199.462 75 199.423 74.7734C199.384 74.5469 199.353 74.2891 199.33 74C198.869 74.5 198.337 74.9258 197.736 75.2773C197.017 75.6914 196.205 75.8984 195.298 75.8984C194.142 75.8984 193.185 75.5703 192.427 74.9141C191.677 74.25 191.302 73.3125 191.302 72.1016C191.302 70.5312 191.908 69.3945 193.119 68.6914C193.783 68.3086 194.759 68.0352 196.048 67.8711L197.185 67.7305C197.802 67.6523 198.244 67.5547 198.509 67.4375C198.986 67.2344 199.224 66.918 199.224 66.4883C199.224 65.9648 199.04 65.6055 198.673 65.4102C198.314 65.207 197.783 65.1055 197.08 65.1055C196.29 65.1055 195.732 65.3008 195.404 65.6914C195.169 65.9805 195.013 66.3711 194.935 66.8633H191.712C191.783 65.7461 192.095 64.8281 192.65 64.1094ZM195.134 73.0859C195.447 73.3438 195.83 73.4727 196.283 73.4727C197.001 73.4727 197.662 73.2617 198.263 72.8398C198.873 72.418 199.189 71.6484 199.212 70.5312V69.2891C199.001 69.4219 198.787 69.5312 198.568 69.6172C198.357 69.6953 198.064 69.7695 197.689 69.8398L196.939 69.9805C196.236 70.1055 195.732 70.2578 195.427 70.4375C194.912 70.7422 194.654 71.2148 194.654 71.8555C194.654 72.4258 194.814 72.8359 195.134 73.0859ZM210.24 72.1484L212.877 62.7266H216.428L212.045 75.2891C211.201 77.7109 210.533 79.2109 210.041 79.7891C209.549 80.375 208.564 80.668 207.088 80.668C206.791 80.668 206.553 80.6641 206.373 80.6562C206.193 80.6562 205.924 80.6445 205.564 80.6211V77.9492L205.986 77.9727C206.314 77.9883 206.627 77.9766 206.924 77.9375C207.221 77.8984 207.471 77.8086 207.674 77.668C207.869 77.5352 208.049 77.2578 208.213 76.8359C208.385 76.4141 208.455 76.1562 208.424 76.0625L203.736 62.7266H207.451L210.24 72.1484ZM239.702 75.5H235.061L229.729 67.9531L228.007 69.7227V75.5H224.456V58.2266H228.007V65.3398L234.675 58.2266H239.339L232.261 65.3398L239.702 75.5ZM251.925 71.75C251.839 72.5078 251.445 73.2773 250.742 74.0586C249.648 75.3008 248.117 75.9219 246.148 75.9219C244.523 75.9219 243.089 75.3984 241.847 74.3516C240.605 73.3047 239.984 71.6016 239.984 69.2422C239.984 67.0312 240.542 65.3359 241.66 64.1562C242.785 62.9766 244.242 62.3867 246.031 62.3867C247.093 62.3867 248.05 62.5859 248.902 62.9844C249.753 63.3828 250.456 64.0117 251.011 64.8711C251.511 65.6289 251.835 66.5078 251.984 67.5078C252.07 68.0938 252.105 68.9375 252.089 70.0391H243.347C243.394 71.3203 243.796 72.2188 244.554 72.7344C245.015 73.0547 245.57 73.2148 246.218 73.2148C246.906 73.2148 247.464 73.0195 247.894 72.6289C248.128 72.418 248.335 72.125 248.515 71.75H251.925ZM248.62 67.8359C248.566 66.9531 248.296 66.2852 247.812 65.832C247.335 65.3711 246.742 65.1406 246.031 65.1406C245.257 65.1406 244.656 65.3828 244.226 65.8672C243.804 66.3516 243.538 67.0078 243.429 67.8359H248.62ZM259.062 72.1484L261.699 62.7266H265.25L260.867 75.2891C260.023 77.7109 259.355 79.2109 258.863 79.7891C258.371 80.375 257.387 80.668 255.91 80.668C255.613 80.668 255.375 80.6641 255.195 80.6562C255.015 80.6562 254.746 80.6445 254.387 80.6211V77.9492L254.808 77.9727C255.137 77.9883 255.449 77.9766 255.746 77.9375C256.043 77.8984 256.293 77.8086 256.496 77.668C256.691 77.5352 256.871 77.2578 257.035 76.8359C257.207 76.4141 257.277 76.1562 257.246 76.0625L252.558 62.7266H256.273L259.062 72.1484ZM273.688 75.8398C272.633 75.8398 271.785 75.6289 271.145 75.207C270.762 74.957 270.348 74.5195 269.903 73.8945V75.5H266.633V58.25H269.961V64.3906C270.383 63.7969 270.848 63.3438 271.356 63.0312C271.957 62.6406 272.723 62.4453 273.653 62.4453C275.332 62.4453 276.645 63.0508 277.59 64.2617C278.543 65.4727 279.02 67.0352 279.02 68.9492C279.02 70.9336 278.551 72.5781 277.614 73.8828C276.676 75.1875 275.368 75.8398 273.688 75.8398ZM275.516 69.3008C275.516 68.3945 275.399 67.6445 275.164 67.0508C274.719 65.9258 273.899 65.3633 272.703 65.3633C271.493 65.3633 270.66 65.9141 270.207 67.0156C269.973 67.6016 269.856 68.3594 269.856 69.2891C269.856 70.3828 270.098 71.2891 270.582 72.0078C271.067 72.7266 271.805 73.0859 272.797 73.0859C273.657 73.0859 274.325 72.7383 274.801 72.043C275.278 71.3477 275.516 70.4336 275.516 69.3008ZM291.595 64.3438C292.673 65.6953 293.212 67.293 293.212 69.1367C293.212 71.0117 292.673 72.6172 291.595 73.9531C290.516 75.2812 288.88 75.9453 286.684 75.9453C284.489 75.9453 282.852 75.2812 281.774 73.9531C280.696 72.6172 280.157 71.0117 280.157 69.1367C280.157 67.293 280.696 65.6953 281.774 64.3438C282.852 62.9922 284.489 62.3164 286.684 62.3164C288.88 62.3164 290.516 62.9922 291.595 64.3438ZM286.673 65.1406C285.696 65.1406 284.942 65.4883 284.411 66.1836C283.887 66.8711 283.626 67.8555 283.626 69.1367C283.626 70.418 283.887 71.4062 284.411 72.1016C284.942 72.7969 285.696 73.1445 286.673 73.1445C287.649 73.1445 288.399 72.7969 288.923 72.1016C289.446 71.4062 289.708 70.418 289.708 69.1367C289.708 67.8555 289.446 66.8711 288.923 66.1836C288.399 65.4883 287.649 65.1406 286.673 65.1406ZM295.615 64.1094C296.497 62.9844 298.013 62.4219 300.161 62.4219C301.56 62.4219 302.802 62.6992 303.888 63.2539C304.974 63.8086 305.517 64.8555 305.517 66.3945V72.2539C305.517 72.6602 305.525 73.1523 305.54 73.7305C305.564 74.168 305.63 74.4648 305.74 74.6211C305.849 74.7773 306.013 74.9062 306.232 75.0078V75.5H302.599C302.497 75.2422 302.427 75 302.388 74.7734C302.349 74.5469 302.318 74.2891 302.294 74C301.833 74.5 301.302 74.9258 300.7 75.2773C299.982 75.6914 299.169 75.8984 298.263 75.8984C297.107 75.8984 296.15 75.5703 295.392 74.9141C294.642 74.25 294.267 73.3125 294.267 72.1016C294.267 70.5312 294.872 69.3945 296.083 68.6914C296.747 68.3086 297.724 68.0352 299.013 67.8711L300.15 67.7305C300.767 67.6523 301.208 67.5547 301.474 67.4375C301.95 67.2344 302.189 66.918 302.189 66.4883C302.189 65.9648 302.005 65.6055 301.638 65.4102C301.279 65.207 300.747 65.1055 300.044 65.1055C299.255 65.1055 298.697 65.3008 298.368 65.6914C298.134 65.9805 297.978 66.3711 297.9 66.8633H294.677C294.747 65.7461 295.06 64.8281 295.615 64.1094ZM298.099 73.0859C298.411 73.3438 298.794 73.4727 299.247 73.4727C299.966 73.4727 300.626 73.2617 301.228 72.8398C301.837 72.418 302.154 71.6484 302.177 70.5312V69.2891C301.966 69.4219 301.751 69.5312 301.533 69.6172C301.322 69.6953 301.029 69.7695 300.654 69.8398L299.904 69.9805C299.2 70.1055 298.697 70.2578 298.392 70.4375C297.876 70.7422 297.618 71.2148 297.618 71.8555C297.618 72.4258 297.779 72.8359 298.099 73.0859ZM314.435 65.8086C313.092 65.8086 312.189 66.2461 311.728 67.1211C311.47 67.6133 311.342 68.3711 311.342 69.3945V75.5H307.978V62.7266H311.166V64.9531C311.681 64.1016 312.131 63.5195 312.513 63.207C313.138 62.6836 313.951 62.4219 314.951 62.4219C315.013 62.4219 315.064 62.4258 315.103 62.4336C315.15 62.4336 315.248 62.4375 315.396 62.4453V65.8672C315.185 65.8438 314.998 65.8281 314.834 65.8203C314.67 65.8125 314.537 65.8086 314.435 65.8086ZM328.51 58.25V75.5H325.264V73.7305C324.787 74.4883 324.244 75.0391 323.635 75.3828C323.026 75.7266 322.268 75.8984 321.362 75.8984C319.869 75.8984 318.612 75.2969 317.588 74.0938C316.572 72.8828 316.065 71.332 316.065 69.4414C316.065 67.2617 316.565 65.5469 317.565 64.2969C318.572 63.0469 319.916 62.4219 321.596 62.4219C322.369 62.4219 323.057 62.5938 323.658 62.9375C324.26 63.2734 324.748 63.7422 325.123 64.3438V58.25H328.51ZM319.51 69.1953C319.51 70.375 319.744 71.3164 320.213 72.0195C320.674 72.7305 321.377 73.0859 322.322 73.0859C323.268 73.0859 323.987 72.7344 324.479 72.0312C324.971 71.3281 325.217 70.418 325.217 69.3008C325.217 67.7383 324.822 66.6211 324.033 65.9492C323.549 65.543 322.987 65.3398 322.346 65.3398C321.369 65.3398 320.651 65.7109 320.19 66.4531C319.737 67.1875 319.51 68.1016 319.51 69.1953ZM343.816 73.0039C344.667 73.0039 345.359 72.9102 345.89 72.7227C346.898 72.3633 347.402 71.6953 347.402 70.7188C347.402 70.1484 347.152 69.707 346.652 69.3945C346.152 69.0898 345.366 68.8203 344.296 68.5859L342.468 68.1758C340.671 67.7695 339.429 67.3281 338.741 66.8516C337.577 66.0547 336.995 64.8086 336.995 63.1133C336.995 61.5664 337.558 60.2812 338.683 59.2578C339.808 58.2344 341.46 57.7227 343.64 57.7227C345.46 57.7227 347.011 58.207 348.292 59.1758C349.581 60.1367 350.257 61.5352 350.32 63.3711H346.851C346.788 62.332 346.335 61.5938 345.491 61.1562C344.929 60.8672 344.23 60.7227 343.394 60.7227C342.464 60.7227 341.722 60.9102 341.167 61.2852C340.613 61.6602 340.335 62.1836 340.335 62.8555C340.335 63.4727 340.609 63.9336 341.155 64.2383C341.507 64.4414 342.257 64.6797 343.405 64.9531L346.382 65.668C347.687 65.9805 348.671 66.3984 349.335 66.9219C350.366 67.7344 350.882 68.9102 350.882 70.4492C350.882 72.0273 350.277 73.3398 349.066 74.3867C347.863 75.4258 346.159 75.9453 343.956 75.9453C341.706 75.9453 339.937 75.4336 338.648 74.4102C337.359 73.3789 336.714 71.9648 336.714 70.168H340.159C340.269 70.957 340.484 71.5469 340.804 71.9375C341.39 72.6484 342.394 73.0039 343.816 73.0039ZM363.738 71.75C363.652 72.5078 363.258 73.2773 362.554 74.0586C361.461 75.3008 359.929 75.9219 357.961 75.9219C356.336 75.9219 354.902 75.3984 353.66 74.3516C352.418 73.3047 351.797 71.6016 351.797 69.2422C351.797 67.0312 352.355 65.3359 353.472 64.1562C354.597 62.9766 356.054 62.3867 357.843 62.3867C358.906 62.3867 359.863 62.5859 360.715 62.9844C361.566 63.3828 362.269 64.0117 362.824 64.8711C363.324 65.6289 363.648 66.5078 363.797 67.5078C363.883 68.0938 363.918 68.9375 363.902 70.0391H355.16C355.207 71.3203 355.609 72.2188 356.367 72.7344C356.828 73.0547 357.383 73.2148 358.031 73.2148C358.718 73.2148 359.277 73.0195 359.707 72.6289C359.941 72.418 360.148 72.125 360.328 71.75H363.738ZM360.433 67.8359C360.379 66.9531 360.109 66.2852 359.625 65.832C359.148 65.3711 358.554 65.1406 357.843 65.1406C357.07 65.1406 356.468 65.3828 356.039 65.8672C355.617 66.3516 355.351 67.0078 355.242 67.8359H360.433ZM372.106 65.8086C370.762 65.8086 369.86 66.2461 369.399 67.1211C369.141 67.6133 369.012 68.3711 369.012 69.3945V75.5H365.649V62.7266H368.836V64.9531C369.352 64.1016 369.801 63.5195 370.184 63.207C370.809 62.6836 371.621 62.4219 372.621 62.4219C372.684 62.4219 372.735 62.4258 372.774 62.4336C372.82 62.4336 372.918 62.4375 373.067 62.4453V65.8672C372.856 65.8438 372.668 65.8281 372.504 65.8203C372.34 65.8125 372.207 65.8086 372.106 65.8086ZM377.989 62.7266V75.5H374.602V62.7266H377.989ZM377.989 58.1211V61.2031H374.602V58.1211H377.989ZM391.689 71.75C391.603 72.5078 391.208 73.2773 390.505 74.0586C389.411 75.3008 387.88 75.9219 385.911 75.9219C384.286 75.9219 382.853 75.3984 381.61 74.3516C380.368 73.3047 379.747 71.6016 379.747 69.2422C379.747 67.0312 380.306 65.3359 381.423 64.1562C382.548 62.9766 384.005 62.3867 385.794 62.3867C386.857 62.3867 387.814 62.5859 388.665 62.9844C389.517 63.3828 390.22 64.0117 390.775 64.8711C391.275 65.6289 391.599 66.5078 391.747 67.5078C391.833 68.0938 391.868 68.9375 391.853 70.0391H383.11C383.157 71.3203 383.56 72.2188 384.318 72.7344C384.778 73.0547 385.333 73.2148 385.982 73.2148C386.669 73.2148 387.228 73.0195 387.657 72.6289C387.892 72.418 388.099 72.125 388.278 71.75H391.689ZM388.384 67.8359C388.329 66.9531 388.06 66.2852 387.575 65.832C387.099 65.3711 386.505 65.1406 385.794 65.1406C385.021 65.1406 384.419 65.3828 383.989 65.8672C383.568 66.3516 383.302 67.0078 383.193 67.8359H388.384ZM402.435 63.3125C403.435 63.9531 404.009 65.0547 404.158 66.6172H400.818C400.771 66.1875 400.65 65.8477 400.455 65.5977C400.087 65.1445 399.462 64.918 398.58 64.918C397.853 64.918 397.334 65.0312 397.021 65.2578C396.716 65.4844 396.564 65.75 396.564 66.0547C396.564 66.4375 396.728 66.7148 397.056 66.8867C397.384 67.0664 398.545 67.375 400.537 67.8125C401.865 68.125 402.861 68.5977 403.525 69.2305C404.181 69.8711 404.509 70.6719 404.509 71.6328C404.509 72.8984 404.037 73.9336 403.091 74.7383C402.154 75.5352 400.701 75.9336 398.732 75.9336C396.724 75.9336 395.24 75.5117 394.279 74.668C393.326 73.8164 392.849 72.7344 392.849 71.4219H396.236C396.306 72.0156 396.459 72.4375 396.693 72.6875C397.107 73.1328 397.873 73.3555 398.99 73.3555C399.646 73.3555 400.166 73.2578 400.548 73.0625C400.939 72.8672 401.134 72.5742 401.134 72.1836C401.134 71.8086 400.978 71.5234 400.666 71.3281C400.353 71.1328 399.193 70.7969 397.185 70.3203C395.74 69.9609 394.72 69.5117 394.127 68.9727C393.533 68.4414 393.236 67.6758 393.236 66.6758C393.236 65.4961 393.697 64.4844 394.619 63.6406C395.548 62.7891 396.853 62.3633 398.533 62.3633C400.127 62.3633 401.427 62.6797 402.435 63.3125ZM157.876 105.5V88.22H160.372L166.036 103.46H166.084L171.652 88.22H174.124V105.5H172.492V90.092H172.444L166.78 105.5H165.244L159.556 90.092H159.508V105.5H157.876ZM182.188 105.836C181.388 105.82 180.636 105.676 179.932 105.404C179.244 105.132 178.636 104.724 178.108 104.18C177.596 103.636 177.188 102.956 176.884 102.14C176.58 101.324 176.428 100.372 176.428 99.284C176.428 98.372 176.548 97.524 176.788 96.74C177.028 95.94 177.388 95.244 177.868 94.652C178.348 94.06 178.948 93.596 179.668 93.26C180.388 92.908 181.228 92.732 182.188 92.732C183.164 92.732 184.012 92.908 184.732 93.26C185.452 93.596 186.052 94.06 186.532 94.652C187.012 95.228 187.364 95.916 187.588 96.716C187.828 97.516 187.948 98.372 187.948 99.284C187.948 100.276 187.812 101.172 187.54 101.972C187.268 102.772 186.876 103.46 186.364 104.036C185.868 104.612 185.26 105.06 184.54 105.38C183.836 105.684 183.052 105.836 182.188 105.836ZM186.412 99.284C186.412 98.548 186.332 97.86 186.172 97.22C186.012 96.58 185.764 96.028 185.428 95.564C185.092 95.084 184.66 94.708 184.132 94.436C183.604 94.164 182.956 94.028 182.188 94.028C181.436 94.028 180.788 94.18 180.244 94.484C179.716 94.772 179.284 95.164 178.948 95.66C178.612 96.14 178.364 96.7 178.204 97.34C178.044 97.964 177.964 98.612 177.964 99.284C177.964 100.052 178.052 100.764 178.228 101.42C178.42 102.06 178.692 102.612 179.044 103.076C179.396 103.54 179.836 103.9 180.364 104.156C180.892 104.412 181.5 104.54 182.188 104.54C182.94 104.54 183.58 104.396 184.108 104.108C184.652 103.804 185.092 103.404 185.428 102.908C185.764 102.412 186.012 101.852 186.172 101.228C186.332 100.604 186.412 99.956 186.412 99.284ZM199.7 99.236C199.7 98.532 199.604 97.868 199.412 97.244C199.22 96.604 198.94 96.052 198.572 95.588C198.22 95.108 197.78 94.732 197.252 94.46C196.74 94.172 196.156 94.028 195.5 94.028C194.748 94.028 194.1 94.18 193.556 94.484C193.012 94.772 192.564 95.172 192.212 95.684C191.86 96.196 191.604 96.796 191.444 97.484C191.284 98.156 191.22 98.884 191.252 99.668C191.252 100.452 191.356 101.148 191.564 101.756C191.788 102.348 192.092 102.852 192.476 103.268C192.86 103.684 193.308 104.004 193.82 104.228C194.332 104.436 194.892 104.54 195.5 104.54C196.172 104.54 196.772 104.404 197.3 104.132C197.828 103.86 198.268 103.492 198.62 103.028C198.972 102.548 199.236 101.988 199.412 101.348C199.604 100.692 199.7 99.988 199.7 99.236ZM199.7 88.22H201.14V105.5H199.7V103.316H199.652C199.444 103.732 199.172 104.1 198.836 104.42C198.516 104.724 198.156 104.98 197.756 105.188C197.372 105.396 196.972 105.556 196.556 105.668C196.14 105.78 195.732 105.836 195.332 105.836C194.324 105.836 193.468 105.668 192.764 105.332C192.06 104.996 191.476 104.54 191.012 103.964C190.564 103.372 190.236 102.676 190.028 101.876C189.82 101.076 189.716 100.22 189.716 99.308C189.716 98.444 189.828 97.612 190.052 96.812C190.276 96.012 190.612 95.316 191.06 94.724C191.524 94.116 192.1 93.636 192.788 93.284C193.492 92.916 194.316 92.732 195.26 92.732C196.14 92.732 196.98 92.932 197.78 93.332C198.596 93.716 199.236 94.292 199.7 95.06V88.22ZM213.292 98.42C213.292 97.812 213.204 97.244 213.028 96.716C212.868 96.172 212.62 95.708 212.284 95.324C211.964 94.924 211.556 94.612 211.06 94.388C210.564 94.148 209.996 94.028 209.356 94.028C208.716 94.028 208.148 94.148 207.652 94.388C207.172 94.628 206.756 94.948 206.404 95.348C206.068 95.748 205.796 96.212 205.588 96.74C205.38 97.268 205.244 97.828 205.18 98.42H213.292ZM205.18 99.62C205.18 100.292 205.268 100.932 205.444 101.54C205.62 102.132 205.876 102.652 206.212 103.1C206.564 103.532 207.004 103.884 207.532 104.156C208.06 104.412 208.668 104.54 209.356 104.54C210.3 104.54 211.108 104.292 211.78 103.796C212.452 103.3 212.9 102.596 213.124 101.684H214.732C214.556 102.276 214.324 102.828 214.036 103.34C213.748 103.836 213.388 104.276 212.956 104.66C212.524 105.028 212.012 105.316 211.42 105.524C210.828 105.732 210.14 105.836 209.356 105.836C208.364 105.836 207.508 105.668 206.788 105.332C206.068 104.996 205.476 104.54 205.012 103.964C204.548 103.372 204.204 102.684 203.98 101.9C203.756 101.1 203.644 100.244 203.644 99.332C203.644 98.42 203.772 97.564 204.028 96.764C204.3 95.964 204.676 95.268 205.156 94.676C205.652 94.068 206.252 93.596 206.956 93.26C207.66 92.908 208.46 92.732 209.356 92.732C211.068 92.732 212.412 93.324 213.388 94.508C214.364 95.676 214.844 97.38 214.828 99.62H205.18ZM217.364 105.5V88.22H218.804V105.5H217.364ZM228.404 105.5V88.22H230.036V104.108H239.3V105.5H228.404Z" fill="white"/>
</g>
<defs>
<clipPath id="clip0_2098_273">
<rect width="405" height="106" fill="white"/>
</clipPath>
</defs>
</svg>
